<svg xmlns="http://www.w3.org/2000/svg" viewBox="0 0 100 100" role="img" aria-label="tomprotects">
  <rect width="100" height="100" rx="22" fill="#1b4d3e"/>
  <path transform="translate(20.19 3.80) scale(0.5852)" d="M38.4 100L29.3 100Q24 100 20.1 98.3Q16.1 96.7 13.9 92.8Q11.7 89 11.7 82.3L11.7 82.3L11.7 60.9L3.1 60.9L3.1 49.6L11.7 49.6L13.2 35.9L25.2 35.9L25.2 49.6L38.5 49.6L38.5 60.9L25.2 60.9L25.2 82.5Q25.2 85.9 26.7 87.2Q28.2 88.5 31.8 88.5L31.8 88.5L38.4 88.5L38.4 100ZM58.4 122L44.9 122L44.9 49.6L56.9 49.6L58.4 56.6Q60 54.4 62.2 52.5Q64.4 50.7 67.5 49.5Q70.5 48.4 74.6 48.4L74.6 48.4Q81.7 48.4 87.1 51.9Q92.5 55.4 95.7 61.3Q98.8 67.3 98.8 74.9Q98.8 82.5 95.6 88.5Q92.4 94.4 87 97.8Q81.6 101.2 74.7 101.2L74.7 101.2Q69.1 101.2 65.1 99.2Q61 97.1 58.4 93.5L58.4 93.5L58.4 122ZM71.5 89.4L71.5 89.4Q75.5 89.4 78.6 87.6Q81.6 85.8 83.3 82.5Q85 79.2 85 74.9Q85 70.6 83.3 67.3Q81.6 63.9 78.6 62Q75.5 60.2 71.5 60.2L71.5 60.2Q67.6 60.2 64.6 62Q61.5 63.9 59.8 67.2Q58 70.5 58 74.8Q58 79.1 59.8 82.5Q61.5 85.8 64.6 87.6Q67.6 89.4 71.5 89.4Z" fill="#fdfaf3"/>
</svg>
